<?xml version="1.0" standalone="no"?>
<!DOCTYPE svg PUBLIC "-//W3C//DTD SVG 20010904//EN"
 "http://www.w3.org/TR/2001/REC-SVG-20010904/DTD/svg10.dtd">
<svg version="1.0" xmlns="http://www.w3.org/2000/svg"
 width="773.000000pt" height="606.000000pt" viewBox="0 0 773.000000 606.000000"
 preserveAspectRatio="xMidYMid meet">
<metadata>
Created by potrace 1.16, written by Peter Selinger 2001-2019
</metadata>
<g transform="translate(0.000000,606.000000) scale(0.100000,-0.100000)"
fill="#000000" stroke="none">
<path d="M3340 5995 c-343 -36 -539 -89 -802 -221 -199 -100 -301 -170 -442
-304 -280 -266 -448 -605 -502 -1010 -74 -555 151 -1181 591 -1648 l88 -94
-18 -31 c-143 -250 -264 -374 -450 -463 -123 -59 -188 -74 -316 -74 -94 0
-110 3 -139 22 -71 49 -97 116 -79 208 14 71 67 180 123 251 l44 55 91 12
c126 15 191 46 226 106 50 85 30 183 -54 259 -48 43 -93 57 -186 57 -92 0
-139 -14 -183 -55 -34 -31 -36 -37 -40 -101 -2 -43 2 -84 11 -109 l14 -39 -73
-111 c-39 -60 -98 -155 -129 -210 -71 -123 -114 -178 -156 -195 -28 -12 -33
-12 -46 6 -18 24 -11 65 28 162 38 96 99 199 141 238 18 18 59 44 91 59 102
48 135 140 86 241 -33 68 -75 89 -184 89 -114 0 -167 -25 -204 -96 -23 -43
-24 -50 -12 -90 7 -24 28 -58 47 -75 l33 -32 -65 -73 c-179 -202 -315 -424
-349 -569 -19 -84 -19 -210 0 -284 37 -141 149 -298 280 -392 81 -57 214 -119
312 -145 98 -26 395 -37 555 -20 339 34 720 160 1063 349 126 70 412 256 725
472 l185 128 135 17 c437 55 876 254 1168 529 l69 66 84 0 c111 0 202 -16 268
-46 116 -53 278 -187 436 -364 111 -123 190 -188 280 -231 54 -26 70 -29 165
-29 118 0 151 11 233 74 57 43 86 56 131 56 29 0 38 -9 107 -108 150 -213 189
-299 189 -420 0 -157 -61 -226 -307 -346 -239 -118 -337 -197 -406 -331 -30
-56 -32 -66 -32 -170 0 -102 2 -115 29 -170 37 -75 137 -176 226 -228 113 -65
277 -103 392 -90 59 7 138 42 174 78 47 48 21 131 -49 154 -17 6 -106 15 -197
20 -186 11 -237 24 -299 78 -86 73 -104 167 -52 258 46 80 100 120 275 206
164 79 227 123 293 201 70 83 133 250 133 348 -1 114 -46 270 -111 386 -16 28
-29 53 -29 55 0 2 64 4 143 5 119 1 152 4 207 23 90 32 142 64 198 126 136
149 74 358 -127 427 -89 31 -277 33 -361 4 -145 -50 -259 -146 -320 -268 l-33
-68 -46 0 c-64 0 -166 -23 -240 -55 -171 -72 -261 -36 -438 175 -258 307 -400
406 -640 446 -54 9 -99 18 -100 19 -2 1 22 49 51 106 131 250 197 499 216 821
10 172 -2 437 -26 575 -72 419 -247 739 -544 1001 -246 216 -453 324 -740 384
-127 26 -604 34 -810 13z m345 -147 c-48 -50 -104 -113 -125 -140 l-39 -48
-64 82 c-122 159 -122 159 -106 169 8 5 30 9 49 10 19 1 82 5 140 9 58 3 134
7 169 8 l63 2 -87 -92z m397 59 l48 -12 -82 -70 c-165 -141 -299 -324 -434
-590 -172 -341 -257 -650 -285 -1034 -25 -337 32 -723 156 -1057 50 -135 162
-365 216 -444 25 -36 48 -73 52 -83 11 -30 83 -130 133 -186 43 -48 45 -52 19
-38 -48 25 -176 139 -234 208 -81 96 -161 222 -241 378 -21 42 -82 269 -104
391 -41 228 -50 348 -50 635 2 383 38 692 115 969 86 313 293 709 459 878 l67
68 59 -1 c33 0 80 -6 106 -12z m-799 -49 c13 -18 41 -62 62 -97 22 -36 59 -89
83 -119 l44 -55 -21 -36 c-12 -20 -45 -80 -74 -133 -28 -54 -56 -98 -60 -98
-11 0 -98 188 -141 303 -40 109 -73 233 -64 243 10 10 68 22 110 23 31 1 41
-4 61 -31z m1044 -13 c43 -14 84 -29 92 -34 9 -6 -18 -27 -99 -76 -276 -166
-390 -297 -564 -646 -185 -369 -250 -697 -226 -1127 16 -281 94 -570 246 -912
111 -249 199 -391 329 -529 44 -46 63 -72 54 -75 -8 -3 -44 -13 -80 -24 l-66
-19 -45 43 c-96 91 -283 407 -383 649 -102 244 -140 400 -156 641 -13 183 -7
536 11 694 61 525 311 1016 696 1367 43 40 87 73 96 73 9 0 52 -11 95 -25z
m-1269 -27 c6 -18 23 -76 38 -128 35 -124 115 -337 153 -407 l30 -55 -24 -47
-23 -46 -52 110 c-111 234 -255 573 -248 580 6 6 74 23 95 24 16 1 24 -7 31
-31z m-38 -392 l179 -364 -31 -76 c-17 -42 -36 -75 -42 -73 -14 5 -97 142
-196 324 -70 130 -213 451 -222 498 -2 12 10 22 42 35 89 37 71 60 270 -344z
m1607 290 c4 -3 -19 -59 -50 -124 -31 -65 -60 -132 -63 -150 -4 -18 -10 -32
-14 -32 -21 0 -111 -301 -154 -515 -69 -337 -89 -583 -90 -1070 0 -318 3 -396
17 -475 38 -207 95 -380 198 -600 32 -68 55 -128 51 -132 -14 -13 -163 -90
-167 -86 -15 14 -101 214 -134 312 -77 223 -167 628 -191 856 -16 157 -13 795
5 940 38 306 113 582 211 770 64 124 131 203 228 272 63 44 76 49 109 45 21
-3 41 -8 44 -11z m-1984 -63 c14 -32 42 -101 63 -153 60 -153 196 -414 295
-565 l92 -140 -24 -95 c-12 -52 -27 -123 -33 -158 l-11 -62 -60 87 c-208 303
-376 624 -499 955 -20 53 -36 100 -36 103 0 7 160 84 176 84 6 1 23 -25 37
-56z m2242 -139 c50 -49 120 -133 158 -185 76 -107 192 -332 236 -461 l30 -86
-77 5 c-42 3 -82 10 -89 17 -6 6 -30 56 -53 111 -62 148 -199 412 -300 581
-49 82 -90 155 -90 162 0 22 89 -47 185 -144z m-659 39 c-64 -97 -158 -362
-210 -593 -85 -385 -96 -1017 -26 -1510 37 -255 124 -559 222 -775 68 -150 76
-174 57 -186 -8 -5 -19 -9 -26 -9 -16 0 -103 113 -218 285 -321 480 -460 934
-442 1440 6 172 33 293 130 585 94 283 161 419 278 565 55 67 248 249 257 240
2 -2 -8 -20 -22 -42z m531 -161 c116 -191 321 -587 310 -598 -1 -2 -43 -6 -93
-10 l-91 -7 -23 48 c-23 47 -227 357 -291 442 l-32 42 18 48 c10 26 34 83 53
127 l36 78 21 -26 c12 -15 53 -80 92 -144z m-2433 136 c3 -13 6 -53 6 -89 0
-168 82 -485 217 -839 56 -147 160 -371 207 -447 l26 -41 -37 -31 c-21 -17
-41 -31 -46 -31 -17 0 -192 400 -274 623 -76 210 -125 370 -181 590 l-47 189
53 49 c29 27 57 49 62 49 4 0 10 -10 14 -22z m135 -213 c107 -274 289 -609
456 -842 78 -107 95 -143 95 -198 0 -28 -7 -35 -72 -73 -88 -50 -73 -64 -176
156 -147 312 -289 705 -331 912 -22 110 -34 186 -28 180 3 -3 28 -64 56 -135z
m991 28 c-127 -284 -202 -604 -231 -978 -15 -191 -6 -726 15 -880 24 -181 88
-445 107 -445 5 0 9 -9 9 -21 0 -29 121 -263 178 -345 27 -38 99 -124 161
-191 l111 -122 -43 -6 c-23 -3 -73 -7 -112 -8 l-69 -2 -59 93 c-173 275 -306
619 -377 972 -46 228 -53 321 -47 627 3 229 8 300 26 403 61 337 170 653 317
913 30 53 57 97 59 97 2 0 -18 -48 -45 -107z m-1276 -65 c85 -371 254 -858
392 -1129 13 -27 22 -49 20 -49 -7 0 -159 237 -220 344 -110 191 -348 695
-363 768 -3 18 1 38 13 55 21 33 114 133 123 133 4 0 19 -55 35 -122z m2369
-103 c43 -54 257 -373 257 -384 0 -11 -36 -21 -82 -21 -30 0 -41 5 -54 28 -50
82 -114 171 -157 218 l-48 53 22 71 c13 38 25 70 28 70 4 0 19 -16 34 -35z
m-2563 -127 c64 -152 268 -556 348 -688 38 -63 110 -178 161 -255 l91 -140
-42 -37 c-24 -21 -45 -38 -48 -38 -8 0 -114 146 -201 275 -125 188 -255 410
-359 617 l-101 198 48 85 c26 47 51 85 54 85 3 0 25 -46 49 -102z m2570 -212
c43 -63 47 -75 28 -80 -30 -8 -200 -27 -204 -23 -3 3 8 58 25 123 17 64 31
120 31 123 1 11 80 -83 120 -143z m-2721 -159 c147 -280 303 -521 484 -745
l99 -124 -33 -34 -33 -34 -34 32 c-135 129 -554 691 -602 808 -11 28 -10 43
15 126 15 52 31 94 34 94 3 0 35 -55 70 -123z m3505 -3 c4 -15 5 -28 2 -31 -2
-3 -91 -27 -198 -53 -277 -69 -504 -142 -745 -239 l-53 -21 0 34 0 34 114 40
c178 63 818 257 862 261 7 1 15 -11 18 -25z m-569 -39 c-99 -30 -234 -72 -299
-94 -66 -23 -121 -39 -124 -37 -2 2 -1 29 3 59 l7 55 67 12 c99 18 430 58 481
58 36 1 8 -10 -135 -53z m605 -176 c6 -50 8 -95 4 -99 -5 -5 -94 -22 -199 -40
-214 -35 -461 -96 -674 -165 -162 -53 -161 -53 -161 32 l0 52 58 21 c278 106
932 307 953 294 3 -2 12 -44 19 -95z m-3465 -384 c99 -118 307 -324 366 -364
l37 -25 -51 -68 c-29 -37 -57 -68 -63 -68 -6 0 -48 26 -92 58 -190 135 -405
344 -415 403 -17 101 -29 266 -22 325 l7 67 70 -109 c39 -60 112 -158 163
-219z m3484 138 c-2 -73 -11 -97 -39 -101 -55 -8 -434 -107 -565 -147 -113
-35 -336 -114 -427 -150 -16 -6 -18 0 -18 61 0 140 -4 134 124 182 283 108
672 198 864 201 l62 1 -1 -47z m-2394 -125 c3 -40 5 -115 3 -167 l-3 -95 -81
-55 c-45 -31 -101 -72 -125 -92 -24 -19 -52 -38 -62 -42 -28 -11 -202 -147
-304 -239 -104 -94 -206 -205 -266 -290 -23 -32 -44 -58 -48 -58 -4 0 -21 17
-38 39 l-31 39 63 88 c107 152 348 476 408 549 76 94 165 177 279 262 117 86
183 132 192 133 3 0 9 -33 13 -72z m2385 -89 c0 -85 -58 -380 -102 -517 -33
-105 -28 -100 -158 -132 -121 -30 -336 -93 -533 -156 -94 -29 -172 -52 -174
-51 -6 7 -34 156 -48 264 l-16 118 23 19 c54 44 953 474 996 475 6 1 12 -9 12
-20z m-730 -224 c-157 -79 -289 -144 -293 -144 -4 -1 -7 20 -5 45 3 46 4 47
53 67 69 27 508 176 520 176 6 0 -118 -65 -275 -144z m-2785 -80 c55 -44 142
-110 192 -145 51 -36 93 -67 93 -70 0 -14 -147 -263 -155 -263 -12 -1 -91 148
-136 253 -29 68 -119 308 -119 317 0 7 25 -11 125 -92z m1159 -35 c7 -64 7
-65 -26 -96 -18 -17 -105 -87 -193 -154 -284 -218 -409 -334 -496 -462 -22
-32 -43 -58 -47 -58 -4 0 -27 19 -50 43 l-42 43 56 85 c136 203 287 356 492
499 34 23 62 47 62 51 0 5 6 9 13 9 6 0 57 30 111 66 72 47 102 61 107 52 3
-7 10 -42 13 -78z m30 -187 c3 -21 6 -46 6 -55 0 -10 -50 -59 -112 -111 -189
-158 -352 -338 -449 -496 -24 -39 -47 -71 -50 -71 -10 0 -109 81 -109 89 0 21
155 198 299 341 143 142 376 340 401 340 4 0 10 -17 14 -37z m62 -271 l22 -81
-91 -83 c-51 -45 -169 -158 -262 -250 l-171 -168 -39 27 c-22 14 -44 29 -49
34 -28 25 227 322 439 511 60 53 114 96 119 95 6 -2 20 -40 32 -85z m2048 27
c-46 -84 -61 -94 -190 -134 -66 -20 -198 -61 -294 -93 -96 -31 -180 -58 -186
-60 -12 -3 -44 67 -44 97 0 20 74 56 225 108 76 27 469 131 498 132 16 1 15
-4 -9 -50z m-3560 -179 c53 -25 96 -90 96 -143 0 -34 -7 -47 -47 -87 -47 -47
-49 -48 -128 -55 -44 -4 -93 -15 -108 -24 -15 -9 -53 -47 -83 -85 -130 -163
-169 -317 -111 -432 50 -98 121 -135 272 -142 291 -13 568 158 796 490 l59 87
78 -56 c164 -118 326 -197 524 -257 135 -41 257 -62 437 -76 74 -5 136 -11
137 -13 6 -6 -578 -388 -687 -450 -501 -283 -966 -427 -1375 -427 -263 0 -481
55 -631 159 -77 53 -139 108 -132 115 3 3 24 0 47 -8 128 -45 291 -24 393 50
66 49 81 72 77 117 -2 26 -8 33 -30 35 -22 3 -32 -5 -59 -45 -74 -107 -135
-138 -256 -131 -125 7 -218 60 -264 150 -25 49 -27 243 -3 315 41 123 110 240
311 524 57 81 103 149 103 152 0 3 -16 15 -35 27 -24 15 -38 33 -45 60 -19 72
10 117 92 142 86 25 198 -38 198 -111 0 -57 -20 -82 -91 -117 -83 -41 -143
-106 -202 -221 -85 -165 -109 -281 -67 -323 46 -46 95 -33 166 42 39 42 309
411 332 455 16 30 15 57 -5 112 -20 58 -12 94 29 133 30 28 102 56 147 57 14
1 43 -8 65 -19z m1586 -88 l23 -63 -39 -32 c-110 -91 -213 -190 -282 -271 -42
-50 -82 -90 -89 -90 -8 1 -38 17 -68 35 l-54 33 17 30 c43 78 444 449 463 428
4 -4 17 -35 29 -70z m2120 47 c173 -28 336 -136 517 -344 231 -265 297 -316
423 -323 75 -4 76 -3 190 54 109 54 119 57 190 57 49 0 117 -9 195 -28 101
-24 142 -29 255 -29 197 0 267 33 322 150 25 53 29 71 23 105 -10 57 -67 113
-136 133 -185 55 -390 -39 -488 -224 -37 -69 -42 -74 -66 -56 -16 12 -16 15 5
56 29 57 133 161 189 189 151 78 355 79 494 4 69 -38 87 -65 87 -127 -1 -134
-93 -225 -275 -271 -134 -34 -189 -32 -326 11 -87 27 -138 37 -216 41 l-101 6
-120 -56 c-141 -67 -197 -77 -292 -53 -109 28 -160 67 -405 306 -190 187 -242
232 -300 262 -99 51 -164 68 -288 75 l-108 6 27 28 c38 40 90 47 204 28z
m-410 -102 c-53 -51 -140 -126 -194 -167 -92 -70 -99 -73 -112 -56 -16 23 -69
155 -63 159 6 5 442 154 454 155 6 1 -33 -40 -85 -91z m-1622 -168 l30 -67
-195 -92 c-107 -50 -197 -90 -199 -87 -5 4 96 127 146 177 65 65 174 150 181
143 4 -5 21 -38 37 -74z m4019 -44 c137 -56 19 -224 -170 -242 -69 -6 -235 11
-250 26 -7 7 -1 25 17 51 98 149 270 219 403 165z m-3920 -165 c18 -30 30 -57
25 -61 -4 -4 -51 -30 -105 -58 -78 -40 -105 -49 -130 -45 -64 12 -187 46 -193
55 -2 5 10 15 28 23 18 8 98 44 178 80 80 36 150 65 155 63 6 -2 25 -28 42
-57z m3451 -253 c52 -43 148 -209 176 -306 22 -75 21 -195 -3 -270 -46 -147
-150 -250 -350 -348 -165 -81 -228 -119 -282 -175 -71 -73 -84 -108 -84 -223
1 -89 4 -106 27 -151 33 -63 73 -98 157 -137 89 -42 187 -48 309 -18 112 28
151 25 172 -11 14 -26 14 -29 -12 -54 -22 -23 -38 -28 -108 -34 -268 -24 -461
64 -556 254 -31 63 -34 76 -34 156 0 77 4 94 30 148 53 104 137 173 345 281
98 51 203 109 233 128 107 72 150 167 139 312 -5 58 -14 91 -47 160 -23 47
-51 100 -64 116 -12 17 -42 62 -66 100 -24 39 -50 81 -58 93 l-15 24 38 -16
c21 -9 45 -22 53 -29z"/>
<path d="M1455 3008 c-33 -17 -45 -40 -45 -80 0 -31 5 -41 24 -49 33 -15 91
-3 116 23 56 60 -21 147 -95 106z"/>
<path d="M894 1231 c-22 -10 -55 -36 -72 -57 -48 -57 -117 -198 -149 -300
l-27 -89 -1 -320 c0 -227 4 -341 13 -393 l14 -73 51 3 52 3 2 110 c14 598 38
747 162 992 46 92 50 117 22 133 -24 12 -18 13 -67 -9z"/>
<path d="M4764 1136 c-106 -34 -211 -142 -283 -291 -55 -113 -75 -182 -91
-305 -15 -123 -12 -386 4 -433 19 -53 45 -79 74 -75 20 2 29 15 49 73 52 143
136 238 195 219 18 -5 10 -17 -70 -98 -97 -97 -115 -131 -86 -161 24 -23 111
-16 216 18 l76 24 6 -30 c8 -42 34 -67 67 -67 33 0 82 53 128 139 49 92 81
105 81 33 0 -55 19 -112 45 -138 26 -26 90 -33 127 -13 16 9 24 7 42 -10 19
-18 35 -21 107 -21 79 0 89 3 155 39 l71 39 12 -39 12 -39 114 0 113 0 56 62
c70 77 120 172 105 199 -5 11 -16 19 -24 19 -8 0 -56 -38 -107 -85 -110 -100
-138 -109 -138 -42 0 49 19 136 57 260 l26 87 66 19 c36 11 85 24 107 30 49
13 68 32 59 60 -6 21 -24 26 -123 36 -52 6 -62 10 -58 24 11 36 44 178 50 212
16 91 -46 122 -103 52 -29 -36 -50 -82 -104 -233 -23 -64 -24 -65 -95 -102
-94 -47 -142 -84 -142 -109 0 -27 37 -39 104 -32 31 3 56 4 56 1 0 -3 -9 -50
-19 -104 -11 -54 -22 -116 -26 -137 -5 -30 -13 -41 -43 -56 -94 -48 -182 -56
-182 -16 0 8 16 65 36 126 40 124 41 162 5 167 -17 3 -35 -9 -70 -45 -47 -49
-75 -106 -106 -215 -24 -89 -54 -77 -74 31 -16 82 -28 106 -58 120 -35 16 -69
14 -113 -9 -51 -26 -52 -25 -70 13 -12 25 -22 33 -47 35 -43 4 -68 -23 -89
-95 -9 -32 -23 -65 -33 -74 -15 -16 -120 -59 -142 -59 -6 0 10 24 37 52 54 60
74 102 74 153 0 60 -52 94 -128 81 -32 -5 -27 0 42 39 197 113 274 199 312
347 32 122 -2 255 -75 303 -45 30 -130 40 -187 21z m128 -86 c29 -29 30 -34
26 -99 -5 -102 -65 -216 -166 -320 -70 -71 -161 -141 -185 -141 -13 0 -1 57
44 210 62 210 126 331 191 363 46 23 55 21 90 -13z"/>
<path d="M2309 1117 c-138 -51 -221 -178 -330 -506 -56 -171 -80 -280 -94
-438 -7 -69 -8 -72 -37 -82 -44 -16 -63 -14 -82 8 -26 28 -30 89 -12 160 18
71 21 147 6 156 -20 13 -59 -25 -101 -97 -75 -130 -142 -198 -196 -198 -24 0
-70 49 -79 86 -5 19 4 36 43 81 183 213 309 530 264 666 -24 73 -102 99 -165
56 -104 -71 -267 -365 -296 -532 -18 -99 -9 -302 14 -347 23 -44 63 -88 98
-106 44 -23 154 -18 214 10 l52 24 6 -29 6 -29 202 0 203 0 64 103 c74 117
107 157 132 157 44 0 32 -34 -41 -120 -62 -73 -80 -101 -80 -122 0 -16 10 -18
91 -18 74 0 102 5 155 26 l65 26 20 -26 c20 -26 22 -26 157 -26 l137 0 58 53
c42 39 57 60 57 80 0 42 -42 35 -136 -22 -98 -61 -126 -69 -159 -47 -14 9 -25
22 -25 29 0 6 33 30 72 52 91 51 166 118 189 170 22 48 24 126 4 164 -14 28
-76 61 -113 61 -114 0 -239 -147 -262 -309 -5 -35 -13 -68 -17 -72 -5 -5 -47
-23 -93 -40 l-84 -30 57 60 c54 57 87 111 87 145 0 8 -12 28 -26 45 -30 35
-80 49 -130 33 -19 -5 -34 -9 -34 -8 0 2 23 18 51 36 125 81 237 215 281 336
23 66 34 179 24 248 -15 100 -124 167 -217 133z m89 -167 c73 -68 23 -233
-112 -377 -70 -74 -179 -153 -193 -140 -8 9 31 155 74 282 48 138 85 197 148
236 38 24 56 24 83 -1z m-805 -102 c16 -61 -48 -230 -146 -380 -38 -60 -71
-108 -74 -108 -24 0 121 408 172 487 19 29 41 30 48 1z"/>
<path d="M3499 990 c-74 -39 -128 -122 -190 -286 -53 -142 -52 -139 -102 -163
-66 -32 -127 -88 -127 -117 0 -34 22 -39 86 -22 l54 15 -7 -51 c-10 -66 -10
-303 0 -338 l7 -28 102 0 102 0 53 52 53 52 27 -26 c55 -53 168 -54 246 -2 44
29 93 100 108 159 10 37 8 83 -6 132 -6 19 1 25 59 52 60 27 66 32 66 60 0 21
-6 32 -20 36 -29 9 -105 -4 -188 -32 -57 -19 -76 -22 -87 -13 -22 18 -71 2
-101 -33 -15 -18 -47 -73 -71 -124 -36 -74 -57 -104 -110 -153 -83 -78 -110
-91 -129 -65 -18 24 -18 74 1 171 21 111 53 202 75 214 11 6 68 22 127 36 125
30 143 38 143 63 0 34 -28 46 -115 46 -46 0 -87 3 -91 7 -3 4 24 76 61 159 37
83 68 166 69 183 1 28 -2 31 -29 33 -16 2 -46 -6 -66 -17z m258 -662 c25 -24
33 -40 33 -67 0 -41 -29 -94 -60 -111 -50 -27 -98 19 -84 78 12 48 58 132 72
132 3 0 21 -14 39 -32z"/>
</g>
</svg>
